<svg width="294" height="294" viewBox="0 0 294 294" fill="none" xmlns="http://www.w3.org/2000/svg">
<g filter="url(#filter0_ii)">
<path d="M147.074 27.1679C140.78 27.118 140.583 20.0409 135.14 23.1842C129.698 26.3275 119.67 29.618 116.598 35.0778L4.8539 227.378C2.46864 231.35 2.53889 237.733 1.88144 242.313C1.22398 246.892 10.6532 249.79 11.8255 254.266C12.9978 258.743 16.9616 262.539 19.7818 266.219C22.6021 269.898 21.7176 267.89 25.7487 270.203C29.7798 272.516 27.0985 273.6 31.7156 274.187C36.3327 274.774 39.8596 280.137 44.347 278.908C48.8343 277.679 53.0311 275.575 56.6931 272.72C60.3552 269.865 63.4095 266.314 65.6786 262.276L177.423 69.9758C180.587 64.6982 182.294 58.6841 182.371 52.541C182.447 46.398 173.974 44.4752 170.942 39.1216C167.909 33.768 168.31 34.2756 162.986 31.1537C157.661 28.0318 153.256 27.2171 147.074 27.1679Z" fill="url(#paint0_linear)"/>
</g>
<g filter="url(#filter1_ii)">
<path d="M40.1541 279.74L257.966 279.533L267.889 275.232C265.44 263.483 264.586 267.786 264.477 267.773C263.323 267.588 266.684 279.058 265.554 278.76C264.421 278.457 263.305 278.098 262.208 277.684C261.115 277.274 260.042 276.81 258.995 276.294C257.944 275.773 256.92 275.2 255.926 274.578C254.939 273.96 253.983 273.295 253.062 272.583C252.138 271.866 251.25 271.104 250.402 270.299C249.554 269.497 248.747 268.654 247.984 267.773C247.22 266.89 246.501 265.971 245.83 265.017C245.158 264.061 244.536 263.073 243.965 262.056L262.928 209.939L96.0885 209.938L65.6786 262.274C65.2744 262.99 64.8446 263.691 64.3906 264.377C63.7522 265.349 63.0658 266.289 62.3332 267.193C61.5951 268.098 60.8115 268.965 59.9862 269.792C59.1638 270.62 58.3006 271.407 57.3992 272.149C56.4963 272.892 55.5565 273.59 54.5833 274.24C53.6113 274.89 52.6072 275.491 51.5748 276.041C50.5414 276.589 49.4807 277.085 48.3974 277.528C47.3144 277.969 46.21 278.356 45.0881 278.688C43.9676 279.022 42.8313 279.3 41.6828 279.522C41.1751 279.606 40.6651 279.679 40.1541 279.74Z" fill="url(#paint1_linear)"/>
<path d="M6.12177 225.181L4.84617 227.381C4.24933 228.38 3.70309 229.409 3.20954 230.463C2.71041 231.516 2.26461 232.593 1.87377 233.69C1.54321 234.64 1.25415 235.604 1.00732 236.579C0.907488 236.992 0.815122 237.407 0.730542 237.824C0.623238 238.321 0.527045 238.821 0.441726 239.322C-0.363611 244.321 -0.0652841 249.434 1.31645 254.306C2.69818 259.179 5.13032 263.695 8.44358 267.54C11.7568 271.385 15.8723 274.468 20.5043 276.575C25.1363 278.681 30.174 279.762 35.2681 279.741L40.1541 279.74C40.6651 279.679 41.1751 279.606 41.6828 279.522C42.8313 279.3 43.9676 279.022 45.0881 278.688C46.21 278.356 47.3144 277.969 48.3974 277.528C49.4807 277.085 50.5414 276.589 51.5748 276.041C52.6072 275.491 53.6113 274.89 54.5833 274.24C55.5565 273.59 56.4963 272.892 57.3992 272.149C58.3006 271.407 59.1638 270.62 59.9862 269.792C60.8115 268.965 61.5951 268.098 62.3332 267.193C63.0658 266.289 63.7522 265.349 64.3906 264.377C64.8446 263.691 65.2744 262.99 65.6786 262.274L96.0885 209.938L35.2681 209.939C29.5263 209.918 23.867 211.297 18.7857 213.954C13.7044 216.611 9.35611 220.466 6.12177 225.181Z" fill="url(#paint2_linear)"/>
</g>
<mask id="mask0" mask-type="alpha" maskUnits="userSpaceOnUse" x="0" y="209" width="268" height="71">
<path d="M40.1541 279.74L257.966 279.533L267.889 275.232C265.44 263.483 264.586 267.786 264.477 267.773C263.323 267.588 266.684 279.058 265.554 278.76C264.421 278.457 263.305 278.098 262.208 277.684C261.115 277.274 260.042 276.81 258.995 276.294C257.944 275.773 256.92 275.2 255.926 274.578C254.939 273.96 253.983 273.295 253.062 272.583C252.138 271.866 251.25 271.104 250.402 270.299C249.554 269.497 248.747 268.654 247.984 267.773C247.22 266.89 246.501 265.971 245.83 265.017C245.158 264.061 244.536 263.073 243.965 262.056L262.928 209.939L96.0885 209.938L65.6786 262.274C65.2744 262.99 64.8446 263.691 64.3906 264.377C63.7522 265.349 63.0658 266.289 62.3332 267.193C61.5951 268.098 60.8115 268.965 59.9862 269.792C59.1638 270.62 58.3006 271.407 57.3992 272.149C56.4963 272.892 55.5565 273.59 54.5833 274.24C53.6113 274.89 52.6072 275.491 51.5748 276.041C50.5414 276.589 49.4807 277.085 48.3974 277.528C47.3144 277.969 46.21 278.356 45.0881 278.688C43.9676 279.022 42.8313 279.3 41.6828 279.522C41.1751 279.606 40.6651 279.679 40.1541 279.74Z" fill="url(#paint3_linear)"/>
<path d="M6.12177 225.181L4.84617 227.381C4.24933 228.38 3.70309 229.409 3.20954 230.463C2.71041 231.516 2.26461 232.593 1.87377 233.69C1.54321 234.64 1.25415 235.604 1.00732 236.579C0.907488 236.992 0.815122 237.407 0.730542 237.824C0.623238 238.321 0.527045 238.821 0.441726 239.322C-0.363611 244.321 -0.0652841 249.434 1.31645 254.306C2.69818 259.179 5.13032 263.695 8.44358 267.54C11.7568 271.385 15.8723 274.468 20.5043 276.575C25.1363 278.681 30.174 279.762 35.2681 279.741L40.1541 279.74C40.6651 279.679 41.1751 279.606 41.6828 279.522C42.8313 279.3 43.9676 279.022 45.0881 278.688C46.21 278.356 47.3144 277.969 48.3974 277.528C49.4807 277.085 50.5414 276.589 51.5748 276.041C52.6072 275.491 53.6113 274.89 54.5833 274.24C55.5565 273.59 56.4963 272.892 57.3992 272.149C58.3006 271.407 59.1638 270.62 59.9862 269.792C60.8115 268.965 61.5951 268.098 62.3332 267.193C63.0658 266.289 63.7522 265.349 64.3906 264.377C64.8446 263.691 65.2744 262.99 65.6786 262.274L96.0885 209.938L35.2681 209.939C29.5263 209.918 23.867 211.297 18.7857 213.954C13.7044 216.611 9.35611 220.466 6.12177 225.181Z" fill="url(#paint4_linear)"/>
</mask>
<g mask="url(#mask0)">
<g filter="url(#filter2_dii)">
<path fill-rule="evenodd" clip-rule="evenodd" d="M144.058 17.3617C144.914 17.294 145.773 17.2578 146.633 17.2529L146.63 17.2521C147.276 17.2427 147.922 17.2507 148.568 17.2767C148.769 17.2832 148.969 17.2916 149.17 17.3016C154.996 17.6972 160.631 19.5301 165.564 22.6345C170.498 25.7389 174.575 30.0166 177.426 35.0809L179.952 39.4194L179.953 39.42C179.953 39.4201 179.953 39.4202 179.953 39.4202L289.138 227.381C291.492 231.352 293.032 235.748 293.668 240.314C294.304 244.88 294.024 249.526 292.843 253.984C291.662 258.442 289.605 262.623 286.789 266.286C283.973 269.949 280.455 273.021 276.437 275.326C272.42 277.63 267.983 279.121 263.382 279.712C258.782 280.303 254.11 279.983 249.634 278.769C245.159 277.556 240.971 275.474 237.31 272.643C233.649 269.812 230.589 266.288 228.306 262.275L147.005 122.324L116.595 69.9758C113.852 65.3826 112.206 60.2248 111.784 54.9002C111.363 49.5755 112.177 44.2261 114.164 39.2633L116.595 35.0813C116.988 34.3823 117.405 33.6969 117.846 33.0265C118.488 32.05 119.179 31.106 119.916 30.1982C120.65 29.2939 121.429 28.4266 122.251 27.5995C123.073 26.7715 123.936 25.9849 124.838 25.2426C125.741 24.4993 126.681 23.8015 127.654 23.1516C128.626 22.5018 129.63 21.9007 130.662 21.3507C131.692 20.8031 132.748 20.307 133.827 19.864C134.91 19.4186 136.015 19.0273 137.137 18.6916C138.261 18.357 139.402 18.0786 140.554 17.8576C141.693 17.636 142.841 17.4703 143.996 17.3617H144.058ZM180.085 39.734C180.076 39.7137 180.068 39.6934 180.06 39.673ZM180.06 39.673C180.068 39.6932 180.076 39.7134 180.085 39.7336C180.085 39.7338 180.085 39.7339 180.085 39.734" fill="url(#paint5_linear)"/>
</g>
</g>
<g filter="url(#filter3_ii)">
<path fill-rule="evenodd" clip-rule="evenodd" d="M144.058 17.3617C144.914 17.294 145.773 17.2578 146.633 17.2529L146.63 17.2521C147.276 17.2427 147.922 17.2507 148.568 17.2767C148.769 17.2832 148.969 17.2916 149.17 17.3016C154.996 17.6972 160.631 19.5301 165.564 22.6345C170.498 25.7389 174.575 30.0166 177.426 35.0809L179.952 39.4192L179.953 39.4197L179.953 39.42L289.138 227.381C291.493 231.352 293.032 235.748 293.668 240.314C294.304 244.88 294.024 249.526 292.843 253.984C291.662 258.442 289.605 262.623 286.789 266.286C283.973 269.949 280.455 273.021 276.437 275.326C272.42 277.63 267.983 279.121 263.382 279.712C258.782 280.303 254.11 279.983 249.635 278.769C245.159 277.556 240.971 275.474 237.31 272.643C233.649 269.812 230.589 266.288 228.306 262.275L147.005 122.324L116.595 69.9758C113.852 65.3826 112.206 60.2248 111.784 54.9002C111.363 49.5755 112.177 44.2261 114.164 39.2633L116.595 35.0812C116.988 34.3823 117.405 33.6969 117.846 33.0265C118.488 32.0499 119.179 31.106 119.916 30.1982C120.65 29.2939 121.429 28.4266 122.251 27.5995C123.073 26.7715 123.936 25.9849 124.838 25.2426C125.741 24.4993 126.681 23.8015 127.654 23.1516C128.626 22.5018 129.63 21.9007 130.662 21.3507C131.692 20.8031 132.748 20.307 133.827 19.864C134.91 19.4186 136.015 19.0273 137.137 18.6916C138.261 18.357 139.402 18.0786 140.554 17.8576C141.693 17.636 142.841 17.4703 143.996 17.3617H144.058ZM180.085 39.7347C180.085 39.7343 180.085 39.7339 180.085 39.7335C180.061 39.6755 180.036 39.6176 180.012 39.5598C180.037 39.618 180.061 39.6763 180.085 39.7347Z" fill="url(#paint6_linear)"/>
</g>
<mask id="mask1" mask-type="alpha" maskUnits="userSpaceOnUse" x="62" y="0" width="161" height="157">
<path d="M133.872 156.793L68.6616 108.455L62.3584 47.0656L148.104 0L222.56 41.5645L133.872 156.793Z" fill="#C4C4C4"/>
</mask>
<g mask="url(#mask1)">
<g filter="url(#filter4_ii)">
<path d="M177.696 37.108L176.432 34.9017C175.866 33.8842 175.25 32.896 174.585 31.941C173.924 30.9816 173.216 30.0564 172.463 29.1688C171.806 28.4071 171.118 27.6745 170.398 26.9729C170.091 26.6797 169.778 26.3921 169.46 26.1104C169.084 25.7686 168.7 25.4353 168.308 25.1105C164.389 21.9127 159.819 19.6151 154.915 18.3773C150.011 17.1395 144.89 16.9912 139.909 17.9424C134.927 18.8937 130.204 20.9219 126.066 23.8862C121.928 26.8505 118.475 30.6799 115.947 35.1091L113.504 39.3473C113.302 39.8213 113.11 40.3002 112.929 40.7825C112.546 41.8893 112.218 43.0141 111.947 44.1531C111.673 45.2921 111.456 46.4437 111.296 47.6037C111.137 48.7646 111.035 49.9327 110.992 51.103C110.952 52.2736 110.97 53.445 111.045 54.613C111.121 55.782 111.254 56.9462 111.445 58.101C111.637 59.254 111.885 60.396 112.19 61.5233C112.492 62.6526 112.85 63.7659 113.263 64.8584C113.679 65.9459 114.148 67.0113 114.67 68.0511C115.036 68.7878 115.427 69.5113 115.844 70.2198L145.893 122.765L176.302 70.0098C179.191 65.0398 180.829 59.4418 181.072 53.7058C181.315 47.9698 180.156 42.2707 177.696 37.108Z" fill="url(#paint7_linear)"/>
<path fill-rule="evenodd" clip-rule="evenodd" d="M67.5659 119.214L113.504 39.3473C113.302 39.8213 113.11 40.3002 112.929 40.7825C112.546 41.8893 112.218 43.0141 111.947 44.1531C111.673 45.2921 111.456 46.4437 111.296 47.6037C111.137 48.7646 111.035 49.9327 110.992 51.103C110.952 52.2736 110.97 53.445 111.045 54.613C111.121 55.782 111.254 56.9462 111.445 58.101C111.637 59.254 111.885 60.396 112.19 61.5233C112.492 62.6526 112.85 63.7659 113.263 64.8584C113.679 65.9459 114.148 67.0113 114.67 68.0511C115.036 68.7878 115.427 69.5113 115.844 70.2198L145.893 122.765L123.576 161.478L67.5659 119.214ZM4.24481 232.989C3.34247 233.731 2.4772 234.517 1.6522 235.344C1.3912 235.608 2.37904 236.072 3.82649 236.611L3.53503 239.134C13.6536 242.468 12.1757 240.553 11.7682 240.025C11.7173 239.959 11.6831 239.914 11.6903 239.905C12.0628 239.445 9.28526 238.498 6.55241 237.566C5.59204 237.238 4.63719 236.913 3.82649 236.611L4.24481 232.989Z" fill="url(#paint8_linear)"/>
</g>
</g>
<mask id="mask2" mask-type="alpha" maskUnits="userSpaceOnUse" x="110" y="15" width="183" height="264">
<path fill-rule="evenodd" clip-rule="evenodd" d="M143.914 15.5C144.804 15.4327 145.697 15.3967 146.59 15.3918L146.588 15.391C147.259 15.3816 147.931 15.3896 148.601 15.4154C148.81 15.422 149.019 15.4303 149.227 15.4403C155.282 15.834 161.139 17.6582 166.267 20.7479C171.394 23.8376 175.631 28.095 178.595 33.1352L181.221 37.4538C181.268 37.5579 181.314 37.6625 181.359 37.767C181.792 38.8471 182.167 39.9472 182.485 41.063C182.799 42.185 183.053 43.3212 183.248 44.4674C183.445 45.6069 183.583 46.7552 183.66 47.9078C183.671 48.073 183.681 48.2383 183.69 48.4036L287.155 226.244C289.509 230.208 291.048 234.596 291.684 239.153C292.32 243.711 292.039 248.348 290.859 252.798C289.678 257.248 287.621 261.421 284.806 265.078C281.991 268.734 278.474 271.801 274.458 274.101C270.442 276.401 266.006 277.889 261.407 278.479C256.808 279.069 252.137 278.749 247.663 277.538C243.189 276.327 239.002 274.249 235.342 271.423C231.682 268.597 228.623 265.08 226.341 261.074L145.063 121.378L146.42 119.046L115.37 67.8647C112.519 63.2933 110.809 58.16 110.371 52.8606C109.933 47.5612 110.779 42.2371 112.844 37.2978L115.37 33.1356C115.779 32.4399 116.213 31.7579 116.671 31.0906C117.338 30.1187 118.056 29.1792 118.822 28.2757C119.585 27.3757 120.395 26.5125 121.249 25.6894C122.103 24.8653 123.001 24.0824 123.938 23.3436C124.876 22.6039 125.853 21.9093 126.865 21.2625C127.875 20.6158 128.918 20.0176 129.991 19.4701C131.061 18.9252 132.159 18.4314 133.281 17.9905C134.406 17.5472 135.554 17.1578 136.72 16.8236C137.889 16.4907 139.075 16.2136 140.273 15.9936C141.456 15.7731 142.649 15.6082 143.85 15.5H143.914Z" fill="url(#paint9_linear)"/>
</mask>
<g mask="url(#mask2)">
<g filter="url(#filter5_dii)">
<path d="M177.696 37.1078L176.432 34.9014C175.866 33.8839 175.25 32.8958 174.585 31.9408C173.924 30.9814 173.216 30.0562 172.463 29.1686C171.806 28.4068 171.118 27.6742 170.398 26.9727C170.091 26.6795 169.778 26.3918 169.46 26.1101C169.084 25.7684 168.7 25.4351 168.308 25.1103C164.389 21.9124 159.819 19.6148 154.915 18.377C150.011 17.1393 144.89 16.991 139.909 17.9422C134.927 18.8934 130.204 20.9217 126.066 23.886C121.928 26.8503 118.475 30.6797 115.947 35.1088L113.504 39.3471C113.302 39.821 113.11 40.2999 112.929 40.7822C112.546 41.8891 112.218 43.0138 111.947 44.1528C111.673 45.2918 111.456 46.4434 111.296 47.6035C111.137 48.7644 111.035 49.9325 110.992 51.1028C110.952 52.2733 110.97 53.4448 111.045 54.6127C111.121 55.7818 111.254 56.9459 111.445 58.1008C111.637 59.2538 111.885 60.3958 112.19 61.5231C112.492 62.6524 112.85 63.7656 113.263 64.8581C113.679 65.9457 114.148 67.0111 114.67 68.0508C115.036 68.7875 115.427 69.5111 115.844 70.2196L145.893 122.764L176.302 70.0096C179.191 65.0396 180.829 59.4415 181.072 53.7055C181.315 47.9696 180.156 42.2704 177.696 37.1078Z" fill="url(#paint10_linear)"/>
<path fill-rule="evenodd" clip-rule="evenodd" d="M67.5659 119.214L113.504 39.3471C113.302 39.821 113.11 40.2999 112.929 40.7822C112.546 41.8891 112.218 43.0138 111.947 44.1528C111.673 45.2918 111.456 46.4434 111.296 47.6035C111.137 48.7644 111.035 49.9325 110.992 51.1028C110.952 52.2733 110.97 53.4448 111.045 54.6127C111.121 55.7818 111.254 56.9459 111.445 58.1008C111.637 59.2538 111.885 60.3958 112.19 61.5231C112.492 62.6524 112.85 63.7656 113.263 64.8581C113.679 65.9457 114.148 67.0111 114.67 68.0508C115.036 68.7875 115.427 69.5111 115.844 70.2196L145.893 122.764L123.576 161.477L67.5659 119.214ZM4.24481 232.989C3.34247 233.73 2.4772 234.516 1.6522 235.344C1.3912 235.608 2.37904 236.071 3.82649 236.61L3.53503 239.134C13.6536 242.468 12.1757 240.553 11.7682 240.024C11.7173 239.958 11.6831 239.914 11.6903 239.904C12.0628 239.445 9.28526 238.498 6.55241 237.566C5.59204 237.238 4.63719 236.912 3.82649 236.61L4.24481 232.989Z" fill="url(#paint11_linear)"/>
</g>
</g>
<mask id="mask3" mask-type="alpha" maskUnits="userSpaceOnUse" x="1" y="22" width="182" height="258">
<path d="M147.074 27.1679C140.78 27.118 140.583 20.0409 135.14 23.1842C129.698 26.3275 119.67 29.618 116.598 35.0778L4.8539 227.378C2.46864 231.35 2.53889 237.733 1.88144 242.313C1.22398 246.892 10.6532 249.79 11.8255 254.266C12.9978 258.743 16.9616 262.539 19.7818 266.219C22.6021 269.898 21.7176 267.89 25.7487 270.203C29.7798 272.516 27.0985 273.6 31.7156 274.187C36.3327 274.774 39.8596 280.137 44.347 278.908C48.8343 277.679 53.0311 275.575 56.6931 272.72C60.3552 269.865 63.4095 266.314 65.6786 262.276L177.423 69.9758C180.587 64.6982 182.294 58.6841 182.371 52.541C182.447 46.398 173.974 44.4752 170.942 39.1216C167.909 33.768 168.31 34.2756 162.986 31.1537C157.661 28.0318 153.256 27.2171 147.074 27.1679Z" fill="url(#paint12_linear)"/>
</mask>
<g mask="url(#mask3)">
<g filter="url(#filter6_dii)">
<path d="M40.1541 279.74L257.966 279.532L267.889 275.231C265.44 263.482 264.586 267.785 264.477 267.773C263.323 267.588 266.684 279.058 265.554 278.759C264.421 278.457 263.305 278.098 262.208 277.684C261.115 277.274 260.042 276.81 258.995 276.294C257.944 275.773 256.92 275.2 255.926 274.577C254.939 273.96 253.983 273.295 253.062 272.583C252.138 271.866 251.25 271.104 250.402 270.299C249.554 269.497 248.747 268.654 247.984 267.773C247.22 266.89 246.501 265.97 245.83 265.017C245.158 264.061 244.536 263.073 243.965 262.055L262.928 209.939L96.0885 209.938L65.6786 262.274C65.2744 262.99 64.8446 263.691 64.3906 264.377C63.7522 265.349 63.0658 266.289 62.3332 267.193C61.5951 268.098 60.8115 268.965 59.9862 269.792C59.1638 270.62 58.3006 271.406 57.3992 272.149C56.4963 272.892 55.5565 273.59 54.5833 274.24C53.6113 274.889 52.6072 275.491 51.5748 276.041C50.5414 276.589 49.4807 277.085 48.3974 277.527C47.3144 277.969 46.21 278.356 45.0881 278.688C43.9676 279.022 42.8313 279.3 41.6828 279.522C41.1751 279.605 40.6651 279.678 40.1541 279.74Z" fill="url(#paint13_linear)"/>
<path d="M6.12177 225.181L4.84617 227.38C4.24933 228.38 3.70309 229.409 3.20954 230.463C2.71041 231.515 2.26461 232.593 1.87377 233.69C1.54321 234.64 1.25415 235.604 1.00732 236.578C0.907488 236.992 0.815122 237.407 0.730542 237.823C0.623238 238.321 0.527045 238.821 0.441726 239.322C-0.363611 244.321 -0.0652841 249.433 1.31645 254.306C2.69818 259.178 5.13032 263.694 8.44358 267.54C11.7568 271.385 15.8723 274.468 20.5043 276.574C25.1363 278.681 30.174 279.762 35.2681 279.74L40.1541 279.74C40.6651 279.678 41.1751 279.605 41.6828 279.522C42.8313 279.3 43.9676 279.022 45.0881 278.688C46.21 278.356 47.3144 277.969 48.3974 277.527C49.4807 277.085 50.5414 276.589 51.5748 276.041C52.6072 275.491 53.6113 274.889 54.5833 274.24C55.5565 273.59 56.4963 272.892 57.3992 272.149C58.3006 271.406 59.1638 270.62 59.9862 269.792C60.8115 268.965 61.5951 268.098 62.3332 267.193C63.0658 266.289 63.7522 265.349 64.3906 264.377C64.8446 263.691 65.2744 262.99 65.6786 262.274L96.0885 209.938L35.2681 209.939C29.5263 209.918 23.867 211.297 18.7857 213.954C13.7044 216.611 9.35611 220.466 6.12177 225.181Z" fill="url(#paint14_linear)"/>
</g>
</g>
<defs>
<filter id="filter0_ii" x="1.84863" y="22.3796" width="180.522" height="256.711" filterUnits="userSpaceOnUse" color-interpolation-filters="sRGB">
<feFlood flood-opacity="0" result="BackgroundImageFix"/>
<feBlend mode="normal" in="SourceGraphic" in2="BackgroundImageFix" result="shape"/>
<feColorMatrix in="SourceAlpha" type="matrix" values="0 0 0 0 0 0 0 0 0 0 0 0 0 0 0 0 0 0 127 0" result="hardAlpha"/>
<feOffset dy="1.5"/>
<feComposite in2="hardAlpha" operator="arithmetic" k2="-1" k3="1"/>
<feColorMatrix type="matrix" values="0 0 0 0 1 0 0 0 0 1 0 0 0 0 1 0 0 0 0.37 0"/>
<feBlend mode="overlay" in2="shape" result="effect1_innerShadow"/>
<feColorMatrix in="SourceAlpha" type="matrix" values="0 0 0 0 0 0 0 0 0 0 0 0 0 0 0 0 0 0 127 0" result="hardAlpha"/>
<feOffset dy="-1.5"/>
<feComposite in2="hardAlpha" operator="arithmetic" k2="-1" k3="1"/>
<feColorMatrix type="matrix" values="0 0 0 0 0.548372 0 0 0 0 0.136153 0 0 0 0 0.742358 0 0 0 0.14 0"/>
<feBlend mode="normal" in2="effect1_innerShadow" result="effect2_innerShadow"/>
</filter>
<filter id="filter1_ii" x="0" y="209.938" width="267.889" height="69.8027" filterUnits="userSpaceOnUse" color-interpolation-filters="sRGB">
<feFlood flood-opacity="0" result="BackgroundImageFix"/>
<feBlend mode="normal" in="SourceGraphic" in2="BackgroundImageFix" result="shape"/>
<feColorMatrix in="SourceAlpha" type="matrix" values="0 0 0 0 0 0 0 0 0 0 0 0 0 0 0 0 0 0 127 0" result="hardAlpha"/>
<feOffset dy="1.5"/>
<feComposite in2="hardAlpha" operator="arithmetic" k2="-1" k3="1"/>
<feColorMatrix type="matrix" values="0 0 0 0 1 0 0 0 0 1 0 0 0 0 1 0 0 0 0.2 0"/>
<feBlend mode="overlay" in2="shape" result="effect1_innerShadow"/>
<feColorMatrix in="SourceAlpha" type="matrix" values="0 0 0 0 0 0 0 0 0 0 0 0 0 0 0 0 0 0 127 0" result="hardAlpha"/>
<feOffset dy="-1.5"/>
<feComposite in2="hardAlpha" operator="arithmetic" k2="-1" k3="1"/>
<feColorMatrix type="matrix" values="0 0 0 0 0.148277 0 0 0 0 0.136153 0 0 0 0 0.742358 0 0 0 0.07 0"/>
<feBlend mode="normal" in2="effect1_innerShadow" result="effect2_innerShadow"/>
</filter>
<filter id="filter2_dii" x="107.676" y="17.2483" width="190.324" height="270.752" filterUnits="userSpaceOnUse" color-interpolation-filters="sRGB">
<feFlood flood-opacity="0" result="BackgroundImageFix"/>
<feColorMatrix in="SourceAlpha" type="matrix" values="0 0 0 0 0 0 0 0 0 0 0 0 0 0 0 0 0 0 127 0"/>
<feOffset dy="4"/>
<feGaussianBlur stdDeviation="2"/>
<feColorMatrix type="matrix" values="0 0 0 0 0.254902 0 0 0 0 0.4 0 0 0 0 0.803922 0 0 0 0.28 0"/>
<feBlend mode="normal" in2="BackgroundImageFix" result="effect1_dropShadow"/>
<feBlend mode="normal" in="SourceGraphic" in2="effect1_dropShadow" result="shape"/>
<feColorMatrix in="SourceAlpha" type="matrix" values="0 0 0 0 0 0 0 0 0 0 0 0 0 0 0 0 0 0 127 0" result="hardAlpha"/>
<feOffset dy="1.5"/>
<feComposite in2="hardAlpha" operator="arithmetic" k2="-1" k3="1"/>
<feColorMatrix type="matrix" values="0 0 0 0 1 0 0 0 0 1 0 0 0 0 1 0 0 0 0.2 0"/>
<feBlend mode="overlay" in2="shape" result="effect2_innerShadow"/>
<feColorMatrix in="SourceAlpha" type="matrix" values="0 0 0 0 0 0 0 0 0 0 0 0 0 0 0 0 0 0 127 0" result="hardAlpha"/>
<feOffset dy="-1.5"/>
<feComposite in2="hardAlpha" operator="arithmetic" k2="-1" k3="1"/>
<feColorMatrix type="matrix" values="0 0 0 0 0.839216 0 0 0 0 0.25098 0 0 0 0 0.25098 0 0 0 0.11 0"/>
<feBlend mode="normal" in2="effect2_innerShadow" result="effect3_innerShadow"/>
</filter>
<filter id="filter3_ii" x="111.676" y="17.2483" width="182.324" height="262.752" filterUnits="userSpaceOnUse" color-interpolation-filters="sRGB">
<feFlood flood-opacity="0" result="BackgroundImageFix"/>
<feBlend mode="normal" in="SourceGraphic" in2="BackgroundImageFix" result="shape"/>
<feColorMatrix in="SourceAlpha" type="matrix" values="0 0 0 0 0 0 0 0 0 0 0 0 0 0 0 0 0 0 127 0" result="hardAlpha"/>
<feOffset dy="1.5"/>
<feComposite in2="hardAlpha" operator="arithmetic" k2="-1" k3="1"/>
<feColorMatrix type="matrix" values="0 0 0 0 1 0 0 0 0 1 0 0 0 0 1 0 0 0 0.2 0"/>
<feBlend mode="overlay" in2="shape" result="effect1_innerShadow"/>
<feColorMatrix in="SourceAlpha" type="matrix" values="0 0 0 0 0 0 0 0 0 0 0 0 0 0 0 0 0 0 127 0" result="hardAlpha"/>
<feOffset dy="-1.5"/>
<feComposite in2="hardAlpha" operator="arithmetic" k2="-1" k3="1"/>
<feColorMatrix type="matrix" values="0 0 0 0 0.839216 0 0 0 0 0.25098 0 0 0 0 0.25098 0 0 0 0.11 0"/>
<feBlend mode="normal" in2="effect1_innerShadow" result="effect2_innerShadow"/>
</filter>
<filter id="filter4_ii" x="1.61035" y="17.3245" width="179.493" height="250.153" filterUnits="userSpaceOnUse" color-interpolation-filters="sRGB">
<feFlood flood-opacity="0" result="BackgroundImageFix"/>
<feBlend mode="normal" in="SourceGraphic" in2="BackgroundImageFix" result="shape"/>
<feColorMatrix in="SourceAlpha" type="matrix" values="0 0 0 0 0 0 0 0 0 0 0 0 0 0 0 0 0 0 127 0" result="hardAlpha"/>
<feOffset dy="1.5"/>
<feComposite in2="hardAlpha" operator="arithmetic" k2="-1" k3="1"/>
<feColorMatrix type="matrix" values="0 0 0 0 1 0 0 0 0 1 0 0 0 0 1 0 0 0 0.37 0"/>
<feBlend mode="overlay" in2="shape" result="effect1_innerShadow"/>
<feColorMatrix in="SourceAlpha" type="matrix" values="0 0 0 0 0 0 0 0 0 0 0 0 0 0 0 0 0 0 127 0" result="hardAlpha"/>
<feOffset dy="-1.5"/>
<feComposite in2="hardAlpha" operator="arithmetic" k2="-1" k3="1"/>
<feColorMatrix type="matrix" values="0 0 0 0 0.548372 0 0 0 0 0.136153 0 0 0 0 0.742358 0 0 0 0.14 0"/>
<feBlend mode="normal" in2="effect1_innerShadow" result="effect2_innerShadow"/>
</filter>
<filter id="filter5_dii" x="-2.38965" y="17.3242" width="187.493" height="258.153" filterUnits="userSpaceOnUse" color-interpolation-filters="sRGB">
<feFlood flood-opacity="0" result="BackgroundImageFix"/>
<feColorMatrix in="SourceAlpha" type="matrix" values="0 0 0 0 0 0 0 0 0 0 0 0 0 0 0 0 0 0 127 0"/>
<feOffset dy="4"/>
<feGaussianBlur stdDeviation="2"/>
<feColorMatrix type="matrix" values="0 0 0 0 0.637555 0 0 0 0 0 0 0 0 0 0 0 0 0 0.2 0"/>
<feBlend mode="normal" in2="BackgroundImageFix" result="effect1_dropShadow"/>
<feBlend mode="normal" in="SourceGraphic" in2="effect1_dropShadow" result="shape"/>
<feColorMatrix in="SourceAlpha" type="matrix" values="0 0 0 0 0 0 0 0 0 0 0 0 0 0 0 0 0 0 127 0" result="hardAlpha"/>
<feOffset dy="1.5"/>
<feComposite in2="hardAlpha" operator="arithmetic" k2="-1" k3="1"/>
<feColorMatrix type="matrix" values="0 0 0 0 1 0 0 0 0 1 0 0 0 0 1 0 0 0 0.37 0"/>
<feBlend mode="overlay" in2="shape" result="effect2_innerShadow"/>
<feColorMatrix in="SourceAlpha" type="matrix" values="0 0 0 0 0 0 0 0 0 0 0 0 0 0 0 0 0 0 127 0" result="hardAlpha"/>
<feOffset dy="-1.5"/>
<feComposite in2="hardAlpha" operator="arithmetic" k2="-1" k3="1"/>
<feColorMatrix type="matrix" values="0 0 0 0 0.548372 0 0 0 0 0.136153 0 0 0 0 0.742358 0 0 0 0.14 0"/>
<feBlend mode="normal" in2="effect2_innerShadow" result="effect3_innerShadow"/>
</filter>
<filter id="filter6_dii" x="-7" y="205.938" width="281.889" height="83.8027" filterUnits="userSpaceOnUse" color-interpolation-filters="sRGB">
<feFlood flood-opacity="0" result="BackgroundImageFix"/>
<feColorMatrix in="SourceAlpha" type="matrix" values="0 0 0 0 0 0 0 0 0 0 0 0 0 0 0 0 0 0 127 0"/>
<feOffset dy="3"/>
<feGaussianBlur stdDeviation="3.5"/>
<feColorMatrix type="matrix" values="0 0 0 0 0.419214 0 0 0 0 0.0109838 0 0 0 0 0.180896 0 0 0 1 0"/>
<feBlend mode="normal" in2="BackgroundImageFix" result="effect1_dropShadow"/>
<feBlend mode="normal" in="SourceGraphic" in2="effect1_dropShadow" result="shape"/>
<feColorMatrix in="SourceAlpha" type="matrix" values="0 0 0 0 0 0 0 0 0 0 0 0 0 0 0 0 0 0 127 0" result="hardAlpha"/>
<feOffset dy="1.5"/>
<feComposite in2="hardAlpha" operator="arithmetic" k2="-1" k3="1"/>
<feColorMatrix type="matrix" values="0 0 0 0 1 0 0 0 0 1 0 0 0 0 1 0 0 0 0.2 0"/>
<feBlend mode="overlay" in2="shape" result="effect2_innerShadow"/>
<feColorMatrix in="SourceAlpha" type="matrix" values="0 0 0 0 0 0 0 0 0 0 0 0 0 0 0 0 0 0 127 0" result="hardAlpha"/>
<feOffset dy="-1.5"/>
<feComposite in2="hardAlpha" operator="arithmetic" k2="-1" k3="1"/>
<feColorMatrix type="matrix" values="0 0 0 0 0.148277 0 0 0 0 0.136153 0 0 0 0 0.742358 0 0 0 0.07 0"/>
<feBlend mode="normal" in2="effect2_innerShadow" result="effect3_innerShadow"/>
</filter>
<linearGradient id="paint0_linear" x1="134.842" y1="34.4374" x2="91.9713" y2="228.888" gradientUnits="userSpaceOnUse">
<stop stop-color="#FF57C6"/>
<stop offset="1" stop-color="#FF4081"/>
</linearGradient>
<linearGradient id="paint1_linear" x1="31.4535" y1="244.84" x2="258.118" y2="244.84" gradientUnits="userSpaceOnUse">
<stop stop-color="#3EBAFF"/>
<stop offset="1" stop-color="#4F9CF7"/>
</linearGradient>
<linearGradient id="paint2_linear" x1="31.4535" y1="244.84" x2="258.118" y2="244.84" gradientUnits="userSpaceOnUse">
<stop stop-color="#3EBAFF"/>
<stop offset="1" stop-color="#4F9CF7"/>
</linearGradient>
<linearGradient id="paint3_linear" x1="31.4535" y1="244.84" x2="258.118" y2="244.84" gradientUnits="userSpaceOnUse">
<stop stop-color="#3EBAFF"/>
<stop offset="1" stop-color="#4F9CF7"/>
</linearGradient>
<linearGradient id="paint4_linear" x1="31.4535" y1="244.84" x2="258.118" y2="244.84" gradientUnits="userSpaceOnUse">
<stop stop-color="#3EBAFF"/>
<stop offset="1" stop-color="#4F9CF7"/>
</linearGradient>
<linearGradient id="paint5_linear" x1="135.141" y1="35.1385" x2="276.681" y2="268.013" gradientUnits="userSpaceOnUse">
<stop stop-color="#FFC400"/>
<stop offset="1" stop-color="#FFA800"/>
</linearGradient>
<linearGradient id="paint6_linear" x1="274.348" y1="273.597" x2="153.103" y2="56.7839" gradientUnits="userSpaceOnUse">
<stop stop-color="#FFC400"/>
<stop offset="1" stop-color="#FFA800"/>
</linearGradient>
<linearGradient id="paint7_linear" x1="161.991" y1="22.3389" x2="222.41" y2="103.396" gradientUnits="userSpaceOnUse">
<stop stop-color="#FF57C6"/>
<stop offset="1" stop-color="#FF4081"/>
</linearGradient>
<linearGradient id="paint8_linear" x1="161.991" y1="22.3389" x2="222.41" y2="103.396" gradientUnits="userSpaceOnUse">
<stop stop-color="#FF57C6"/>
<stop offset="1" stop-color="#FF4081"/>
</linearGradient>
<linearGradient id="paint9_linear" x1="133.65" y1="33.3201" x2="275.886" y2="266.057" gradientUnits="userSpaceOnUse">
<stop stop-color="#FFC400"/>
<stop offset="1" stop-color="#FFA800"/>
</linearGradient>
<linearGradient id="paint10_linear" x1="161.991" y1="22.3387" x2="239.54" y2="140.452" gradientUnits="userSpaceOnUse">
<stop stop-color="#FF57C6"/>
<stop offset="1" stop-color="#FF4081"/>
</linearGradient>
<linearGradient id="paint11_linear" x1="161.991" y1="22.3387" x2="239.54" y2="140.452" gradientUnits="userSpaceOnUse">
<stop stop-color="#FF57C6"/>
<stop offset="1" stop-color="#FF4081"/>
</linearGradient>
<linearGradient id="paint12_linear" x1="134.842" y1="34.4374" x2="91.9713" y2="228.888" gradientUnits="userSpaceOnUse">
<stop stop-color="#FF57C6"/>
<stop offset="1" stop-color="#FF4081"/>
</linearGradient>
<linearGradient id="paint13_linear" x1="31.4535" y1="244.839" x2="258.118" y2="244.839" gradientUnits="userSpaceOnUse">
<stop stop-color="#3EBAFF"/>
<stop offset="1" stop-color="#4F9CF7"/>
</linearGradient>
<linearGradient id="paint14_linear" x1="31.4535" y1="244.839" x2="258.118" y2="244.839" gradientUnits="userSpaceOnUse">
<stop stop-color="#3EBAFF"/>
<stop offset="1" stop-color="#4F9CF7"/>
</linearGradient>
</defs>
</svg>
